<svg width="22" height="22" viewBox="0 0 22 22" fill="none" xmlns="http://www.w3.org/2000/svg">
<path d="M14.7101 7.28996C14.6171 7.19623 14.5065 7.12183 14.3847 7.07107C14.2628 7.0203 14.1321 6.99416 14.0001 6.99416C13.8681 6.99416 13.7374 7.0203 13.6155 7.07107C13.4936 7.12183 13.383 7.19623 13.2901 7.28996L11.0001 9.58996L8.71008 7.28996C8.52178 7.10165 8.26638 6.99587 8.00008 6.99587C7.73378 6.99587 7.47838 7.10165 7.29008 7.28996C7.10178 7.47826 6.99599 7.73366 6.99599 7.99996C6.99599 8.26626 7.10178 8.52165 7.29008 8.70996L9.59008 11L7.29008 13.29C7.19635 13.3829 7.12196 13.4935 7.07119 13.6154C7.02042 13.7372 6.99428 13.8679 6.99428 14C6.99428 14.132 7.02042 14.2627 7.07119 14.3845C7.12196 14.5064 7.19635 14.617 7.29008 14.71C7.38304 14.8037 7.49364 14.8781 7.6155 14.9288C7.73736 14.9796 7.86807 15.0058 8.00008 15.0058C8.13209 15.0058 8.2628 14.9796 8.38466 14.9288C8.50652 14.8781 8.61712 14.8037 8.71008 14.71L11.0001 12.41L13.2901 14.71C13.383 14.8037 13.4936 14.8781 13.6155 14.9288C13.7374 14.9796 13.8681 15.0058 14.0001 15.0058C14.1321 15.0058 14.2628 14.9796 14.3847 14.9288C14.5065 14.8781 14.6171 14.8037 14.7101 14.71C14.8038 14.617 14.8782 14.5064 14.929 14.3845C14.9797 14.2627 15.0059 14.132 15.0059 14C15.0059 13.8679 14.9797 13.7372 14.929 13.6154C14.8782 13.4935 14.8038 13.3829 14.7101 13.29L12.4101 11L14.7101 8.70996C14.8038 8.61699 14.8782 8.50639 14.929 8.38453C14.9797 8.26267 15.0059 8.13197 15.0059 7.99996C15.0059 7.86795 14.9797 7.73724 14.929 7.61538C14.8782 7.49352 14.8038 7.38292 14.7101 7.28996ZM18.0701 3.92996C17.1476 2.97486 16.0442 2.21303 14.8241 1.68894C13.6041 1.16485 12.2919 0.888991 10.9641 0.877453C9.6363 0.865915 8.3195 1.11893 7.09054 1.62174C5.86158 2.12455 4.74506 2.86708 3.80613 3.80601C2.8672 4.74493 2.12467 5.86145 1.62186 7.09042C1.11905 8.31938 0.866037 9.63618 0.877575 10.964C0.889113 12.2918 1.16498 13.604 1.68907 14.824C2.21316 16.044 2.97498 17.1475 3.93008 18.07C4.85255 19.0251 5.95599 19.7869 7.17603 20.311C8.39607 20.8351 9.70827 21.1109 11.0361 21.1225C12.3639 21.134 13.6807 20.881 14.9096 20.3782C16.1386 19.8754 17.2551 19.1328 18.194 18.1939C19.133 17.255 19.8755 16.1385 20.3783 14.9095C20.8811 13.6805 21.1341 12.3637 21.1226 11.0359C21.111 9.70815 20.8352 8.39595 20.3111 7.17591C19.787 5.95587 19.0252 4.85243 18.0701 3.92996ZM16.6601 16.66C15.3521 17.9694 13.6306 18.7848 11.7889 18.9673C9.94713 19.1497 8.09908 18.688 6.5596 17.6607C5.02012 16.6334 3.88444 15.1042 3.34605 13.3334C2.80767 11.5627 2.89988 9.6601 3.60699 7.94974C4.3141 6.23938 5.59235 4.82711 7.22397 3.95352C8.85559 3.07993 10.7396 2.79909 12.5551 3.15883C14.3706 3.51857 16.0051 4.49665 17.1803 5.92642C18.3555 7.35619 18.9986 9.14919 19.0001 11C19.0036 12.0512 18.7987 13.0928 18.397 14.0643C17.9953 15.0359 17.405 15.9181 16.6601 16.66Z" fill="white"/>
</svg>
