<svg width="100%" height="100%" viewBox="0 0 22 16" fill="none" xmlns="http://www.w3.org/2000/svg">
<path fill-rule="evenodd" clip-rule="evenodd" d="M0.171875 1.9848C0.171875 1.6657 0.298632 1.35966 0.524262 1.13402C0.749892 0.90838 1.05591 0.781616 1.375 0.781616H20.625C20.9441 0.781616 21.2501 0.90838 21.4757 1.13402C21.7014 1.35966 21.8281 1.6657 21.8281 1.9848C21.8281 2.3039 21.7014 2.60994 21.4757 2.83558C21.2501 3.06122 20.9441 3.18798 20.625 3.18798H1.375C1.05591 3.18798 0.749892 3.06122 0.524262 2.83558C0.298632 2.60994 0.171875 2.3039 0.171875 1.9848ZM3.78125 8.00072C3.78125 7.68161 3.90801 7.37558 4.13364 7.14994C4.35927 6.9243 4.66529 6.79753 4.98438 6.79753H17.0156C17.3347 6.79753 17.6407 6.9243 17.8664 7.14994C18.092 7.37558 18.2188 7.68161 18.2188 8.00072C18.2188 8.31982 18.092 8.62585 17.8664 8.85149C17.6407 9.07714 17.3347 9.2039 17.0156 9.2039H4.98438C4.66529 9.2039 4.35927 9.07714 4.13364 8.85149C3.90801 8.62585 3.78125 8.31982 3.78125 8.00072ZM7.39062 14.0166C7.39062 13.6975 7.51738 13.3915 7.74301 13.1659C7.96864 12.9402 8.27466 12.8134 8.59375 12.8134H13.4062C13.7253 12.8134 14.0314 12.9402 14.257 13.1659C14.4826 13.3915 14.6094 13.6975 14.6094 14.0166C14.6094 14.3357 14.4826 14.6418 14.257 14.8674C14.0314 15.0931 13.7253 15.2198 13.4062 15.2198H8.59375C8.27466 15.2198 7.96864 15.0931 7.74301 14.8674C7.51738 14.6418 7.39062 14.3357 7.39062 14.0166Z" fill="white"/>
</svg>
