<svg width="12" height="7" viewBox="0 0 12 7" fill="none" xmlns="http://www.w3.org/2000/svg">
<path fill-rule="evenodd" clip-rule="evenodd" d="M0.861989 0.528975C0.987007 0.403988 1.15655 0.333774 1.33332 0.333774C1.5101 0.333774 1.67964 0.403988 1.80466 0.528975L5.99999 4.72452L10.1953 0.528975C10.2568 0.465299 10.3304 0.414507 10.4117 0.379566C10.4931 0.344625 10.5805 0.326234 10.6691 0.325465C10.7576 0.324695 10.8454 0.341564 10.9273 0.375086C11.0092 0.408609 11.0837 0.458113 11.1463 0.520711C11.2088 0.58331 11.2583 0.657748 11.2919 0.739683C11.3254 0.821618 11.3423 0.909408 11.3415 0.997932C11.3407 1.08646 11.3223 1.17394 11.2874 1.25528C11.2524 1.33662 11.2017 1.41019 11.138 1.47169L6.47132 6.13859C6.3463 6.26357 6.17676 6.33379 5.99999 6.33379C5.82321 6.33379 5.65367 6.26357 5.52866 6.13859L0.861989 1.47169C0.737008 1.34666 0.666798 1.17712 0.666798 1.00033C0.666798 0.823547 0.737008 0.654 0.861989 0.528975Z" fill="white"/>
</svg>
